<?xml version="1.0" encoding="utf-8"?>
<!-- Generator: Adobe Illustrator 19.0.0, SVG Export Plug-In . SVG Version: 6.00 Build 0)  -->
<svg version="1.1" id="Layer_1" xmlns="http://www.w3.org/2000/svg" xmlns:xlink="http://www.w3.org/1999/xlink" x="0px" y="0px"
	 viewBox="0 0 284.6 126" style="enable-background:new 0 0 284.6 126;" xml:space="preserve">
<style type="text/css">
	.st0{fill:#3AA148;stroke:#DCD7D0;stroke-width:3;stroke-miterlimit:10;}
	.st1{fill:#39A048;stroke:#DCD7D0;stroke-width:3;stroke-miterlimit:10;}
	.st2{fill:#39A048;stroke:#3D290E;stroke-width:3;stroke-miterlimit:10;}
	.st3{fill:none;stroke:#3D290E;stroke-width:3;stroke-miterlimit:10;}
	.st4{fill:#3AA148;stroke:#3D290E;stroke-width:3;stroke-miterlimit:10;}
	.st5{fill:#DCD7D0;}
</style>
<g>
	<path class="st0" d="M241.9,97.6c0,9.4-7.6,17-17,17h-196c-9.4,0-17-7.6-17-17v-39c0-9.4,7.6-17,17-17h196c9.4,0,17,7.6,17,17V97.6
		z"/>
	<g>
		<g>
			<path class="st1" d="M41.9,46.4l-3.6-1.7c0.5-1,0.3-3.8-0.3-5.3c0,0,0,0,0,0c0,0-0.2-0.3-0.5-0.7c-0.2,0-0.5,0-0.9,0
				c-1.3-0.1-3.9-0.2-9.7-0.2l-0.1,0c-5.1-0.4-7.6-0.6-10.3-1.6c-2-0.7-8.6-3.6-12.3-10.6c-2.1-4-2.3-7.7-2.7-14.2
				c-0.1-2.3-0.1-6.9,0-7.7c-0.4-1.2,0.2-2,0.5-2.2c0.9-0.9,2-0.8,3.3,0.2c0.4,0.3,1,0.8,1.7,1.1C7.9,3.9,8.7,3.9,10.4,4
				c0.6,0,0.9,0,1.5,0c0.3,0,0.5,0,0.9,0c0.1,0,2.2-0.1,5,0c4.4,0.2,8.4,1.8,8.8,2c8,3.4,11.5,10.6,12.1,12
				c2.1,4.8,2.3,9.6,2.3,10.6c0,0.6,0.1,1.2,0.2,1.9c0.1,1.3,0.3,2.7,0,4.2c0,0.2-0.1,0.5,0,0.9l0,0l0,0.1c1.9,2.7,2.9,5.1,3.2,7.2
				l-1.8,0.2C42.5,44.3,42.3,45.5,41.9,46.4z M27.3,34.6c5.6,0,8.3,0.1,9.5,0.1c0.1,0,0.2,0,0.2,0c0-0.2,0-0.5,0.1-0.7
				c0.2-0.9,0.1-2-0.1-3.1c-0.1-0.7-0.2-1.5-0.2-2.3c0-2.2-0.6-5.9-1.9-9c-0.3-0.7-3.3-7.1-10-10c0,0-3.7-1.5-7.4-1.7
				c-2.6-0.1-4.7,0-4.7,0l-0.8,0C11.4,8,11,8,10.2,8C8.4,7.9,7,7.8,5.5,7.2c0,1.5,0,3.3,0.1,4.6c0.3,6.3,0.5,9.4,2.2,12.7
				c3,5.7,8.5,8.2,10.1,8.8c2.1,0.8,4.5,1.4,9.1,1.4C27.1,34.6,27.2,34.6,27.3,34.6z"/>
			<path class="st2" d="M42.4,43.1c-0.3-3-2.8-6.2-2.9-6.4c0,0,0-0.1,0-0.1c0,0,0-0.1,0-0.1c0,0,0-0.1-0.1-0.1
				c-0.4-0.9-0.2-1.8-0.2-2c0.4-1.9-0.2-3.8-0.2-5.8c0-2.1-0.5-6.1-2.1-9.8c-0.3-0.7-3.6-7.8-11-11c-0.2-0.1-4-1.7-8.1-1.9
				c-2.7-0.1-4.8,0-4.8,0C11.6,6,11.2,6,10.3,6C8.6,5.9,7.4,5.9,6.2,5.3C4.7,4.6,3.7,3.4,3.5,3.5C3.5,3.6,3.6,3.7,3.6,4.2
				c0,0.3,0,0.5,0,0.5c-0.1,0.5-0.2,4.8,0,7.2c0.4,6.5,0.5,9.8,2.5,13.5c3.5,6.7,10.1,9.3,11.2,9.7c2.4,0.9,4.9,1.1,9.7,1.4l0,0
				c8.1,0,10,0.3,10.8,0.2c0,0,0,0,0.1,0c0,0,0.1,0,0.1,0c0.4,0.1,0.9,0.5,0.9,0.5c0.7,0.7,1,1.4,1,1.4c0.7,1.8,1,5.2,0.2,6.9"/>
			<polyline class="st3" points="26.6,13.2 29.2,26.4 18.1,29.8 			"/>
			<polyline class="st3" points="15.9,8.5 18.1,20.4 9.8,22.4 			"/>
			<path class="st3" d="M7.4,8c0.3,0.9,0.8,2.2,1.6,3.7c0.4,0.8,2.1,3.6,5.7,6.6c1.6,1.3,4,2.6,8.9,5.2c4,2.1,4.2,2.1,5.3,2.9
				c3.1,2.1,5.4,4.7,7.1,7.5"/>
		</g>
		<g>
			<path class="st1" d="M237.8,85l1.7,3.6c1-0.5,3.8-0.4,5.3,0.2l0,0c0,0,0.3,0.2,0.7,0.5c0,0.2,0,0.5,0,0.8
				c0.1,1.3,0.2,3.9,0.3,9.6l0,0.1c0.4,5,0.7,7.5,1.7,10.2c0.7,1.9,3.7,8.5,10.8,12c4.1,2,7.7,2.2,14.3,2.5c2.3,0.1,6.9,0,7.7-0.1
				c1.2,0.3,2-0.2,2.2-0.5c0.9-0.9,0.8-2-0.3-3.3c-0.4-0.4-0.8-1-1.1-1.6c-0.4-0.8-0.4-1.6-0.5-3.2c0-0.6,0-0.9,0-1.5
				c0-0.2,0-0.5,0-0.9c0-0.1,0-2.2-0.1-4.9c-0.2-4.3-1.9-8.3-2.1-8.7c-3.5-7.8-10.8-11.2-12.2-11.8c-4.8-2-9.7-2.1-10.6-2.1
				c-0.6,0-1.2-0.1-1.9-0.1c-1.3-0.1-2.8-0.3-4.2,0c-0.2,0-0.5,0.1-0.9,0l0,0l-0.1,0c-2.7-1.8-5.1-2.8-7.2-3l-0.2,1.8
				C239.8,84.3,238.6,84.6,237.8,85z M249.7,99.3c-0.1-5.6-0.2-8.2-0.3-9.4c0-0.1,0-0.2,0-0.2c0.2,0,0.5-0.1,0.7-0.1
				c0.9-0.2,2-0.1,3.1,0c0.7,0.1,1.5,0.1,2.3,0.1c2.2,0,5.9,0.5,9,1.8c0.7,0.3,7.1,3.2,10.1,9.8c0,0,1.6,3.6,1.8,7.3
				c0.1,2.6,0.1,4.6,0.1,4.6l0,0.8c0,0.6,0,1.1,0,1.9c0.1,1.7,0.2,3.1,0.9,4.6c-1.4,0-3.3,0-4.6,0c-6.3-0.3-9.4-0.4-12.7-2
				c-5.8-2.9-8.3-8.3-8.9-9.9c-0.8-2.1-1.4-4.4-1.5-9C249.7,99.5,249.7,99.4,249.7,99.3z"/>
			<path class="st2" d="M241,84.5c3,0.3,6.3,2.7,6.5,2.8c0,0,0.1,0,0.1,0c0,0,0.1,0,0.1,0c0,0,0.1,0,0.1,0c0.9,0.4,1.8,0.2,2,0.1
				c1.9-0.4,3.8,0.1,5.8,0.1c2.1,0,6.2,0.4,9.8,2c0.7,0.3,7.8,3.4,11.1,10.8c0.1,0.2,1.7,4,2,8c0.1,2.7,0.1,4.8,0.1,4.8
				c0,1.2-0.1,1.6,0,2.5c0.1,1.7,0.2,2.8,0.7,4c0.7,1.5,2,2.5,1.8,2.7c-0.1,0.1-0.2-0.1-0.7-0.1c-0.3,0-0.5,0-0.5,0
				c-0.5,0.1-4.8,0.2-7.2,0.1c-6.5-0.3-9.8-0.4-13.5-2.3c-6.8-3.4-9.4-9.9-9.8-11c-0.9-2.4-1.1-4.8-1.6-9.6l0,0
				c-0.1-8-0.4-9.9-0.4-10.7c0,0,0,0,0,0c0,0,0-0.1,0-0.1c-0.1-0.4-0.5-0.9-0.5-0.9c-0.8-0.7-1.4-1-1.4-1c-1.8-0.7-5.2-0.9-6.9-0.1"
				/>
			<polyline class="st3" points="271.1,99.7 257.9,97.3 254.6,108.4 			"/>
			<polyline class="st3" points="276,110.2 264,108.3 262.1,116.5 			"/>
			<path class="st3" d="M276.6,118.7c-0.9-0.3-2.2-0.8-3.7-1.5c-0.8-0.4-3.7-2-6.6-5.5c-1.3-1.5-2.6-4-5.3-8.7
				c-2.2-4-2.2-4.1-2.9-5.2c-2.1-3-4.8-5.2-7.6-6.9"/>
		</g>
		<path class="st4" d="M224.6,112.8H28.9c-8.3,0-15-6.7-15-15V59c0-8.3,6.7-15,15-15h195.7c8.3,0,15,6.7,15,15v38.8
			C239.6,106.1,232.9,112.8,224.6,112.8z"/>
		<g>
			<g id="XMLID_23_">
				<path id="XMLID_24_" d="M65.4,86c0,7.5-4.8,13.6-11.7,13.6c-3.3,0-5.5-1.2-7-2.9V99h-8.9V61.5h9.3v13.5c1.5-1.5,3.6-2.6,6.6-2.6
					C60.6,72.5,65.4,78.6,65.4,86z M46.7,86.1c0,2.9,1.9,5,4.6,5c2.7,0,4.6-2.1,4.6-5c0-2.9-1.9-5-4.6-5
					C48.6,81.1,46.7,83.2,46.7,86.1z"/>
				<path id="XMLID_27_" d="M95.7,86.1c0,7.8-6,13.6-14,13.6c-8.1,0-14-5.7-14-13.6s6-13.6,14-13.6C89.7,72.5,95.7,78.2,95.7,86.1z
					 M77.1,86.1c0,2.9,1.9,5,4.6,5c2.7,0,4.6-2.1,4.6-5c0-2.9-1.9-5-4.6-5C79,81.1,77.1,83.2,77.1,86.1z"/>
				<path id="XMLID_30_" d="M125.9,86.1c0,7.8-6,13.6-14,13.6c-8.1,0-14-5.7-14-13.6s6-13.6,14-13.6C120,72.5,125.9,78.2,125.9,86.1
					z M107.3,86.1c0,2.9,1.9,5,4.6,5c2.7,0,4.6-2.1,4.6-5c0-2.9-1.9-5-4.6-5C109.3,81.1,107.3,83.2,107.3,86.1z"/>
				<path id="XMLID_33_" d="M138.6,81.2h1.5l5.2-8h11.1l-9,12.2l9,13.6h-11.1l-5.5-9.6h-1.3V99h-9.3V61.5h9.3V81.2z"/>
				<path id="XMLID_35_" d="M178.5,65.7c0,3-2.3,5.3-5.3,5.3s-5.3-2.3-5.3-5.3s2.3-5.3,5.3-5.3S178.5,62.7,178.5,65.7z M177.9,99
					h-9.3V73.2h9.3V99z"/>
				<path id="XMLID_38_" d="M203.1,81.4h-8.4v6c0,2.8,1.5,3.6,3.5,3.6c1.4,0,3-0.9,4.2-1.6l3.1,7.2c-2.6,1.8-5.1,3-9.7,3
					c-7.3,0-10.3-4.5-10.3-10.8v-7.5h-4.7v-8.2h4.7v-7.4h9.3v7.4h8.4V81.4z"/>
				<path id="XMLID_40_" d="M219.2,93.9c0,3.1-2.6,5.7-5.7,5.7c-3.1,0-5.7-2.7-5.7-5.7c0-3,2.7-5.7,5.7-5.7
					C216.5,88.2,219.2,90.8,219.2,93.9z M217.9,85.5h-8.7l-1-22.9h10.8L217.9,85.5z"/>
			</g>
			<g id="XMLID_3_">
				<path id="XMLID_4_" class="st5" d="M60.8,81.7c0,7.5-4.8,13.6-11.7,13.6c-3.3,0-5.5-1.2-7-2.9v2.3h-8.9V57.2h9.3v13.5
					c1.5-1.5,3.6-2.6,6.6-2.6C55.9,68.2,60.8,74.3,60.8,81.7z M42.1,81.7c0,2.9,1.9,5,4.6,5c2.7,0,4.6-2.1,4.6-5c0-2.9-1.9-5-4.6-5
					C44,76.8,42.1,78.8,42.1,81.7z"/>
				<path id="XMLID_7_" class="st5" d="M91,81.7c0,7.8-6,13.6-14,13.6c-8.1,0-14-5.7-14-13.6s6-13.6,14-13.6
					C85.1,68.2,91,73.9,91,81.7z M72.4,81.7c0,2.9,1.9,5,4.6,5c2.7,0,4.6-2.1,4.6-5c0-2.9-1.9-5-4.6-5
					C74.3,76.8,72.4,78.8,72.4,81.7z"/>
				<path id="XMLID_10_" class="st5" d="M121.3,81.7c0,7.8-6,13.6-14,13.6c-8.1,0-14-5.7-14-13.6s6-13.6,14-13.6
					C115.3,68.2,121.3,73.9,121.3,81.7z M102.7,81.7c0,2.9,1.9,5,4.6,5c2.7,0,4.6-2.1,4.6-5c0-2.9-1.9-5-4.6-5
					C104.6,76.8,102.7,78.8,102.7,81.7z"/>
				<path id="XMLID_13_" class="st5" d="M133.9,76.9h1.5l5.2-8h11.1l-9,12.2l9,13.6h-11.1l-5.5-9.6h-1.3v9.6h-9.3V57.2h9.3V76.9z"/>
				<path id="XMLID_15_" class="st5" d="M173.9,61.3c0,3-2.3,5.3-5.3,5.3s-5.3-2.3-5.3-5.3s2.3-5.3,5.3-5.3S173.9,58.3,173.9,61.3z
					 M173.2,94.6H164V68.9h9.3V94.6z"/>
				<path id="XMLID_18_" class="st5" d="M198.5,77h-8.4v6c0,2.8,1.5,3.6,3.5,3.6c1.4,0,3-0.9,4.2-1.6l3.1,7.2c-2.6,1.8-5.1,3-9.7,3
					c-7.3,0-10.3-4.5-10.3-10.8V77h-4.7v-8.2h4.7v-7.4h9.3v7.4h8.4V77z"/>
				<path id="XMLID_20_" class="st5" d="M214.5,89.6c0,3.1-2.6,5.7-5.7,5.7c-3.1,0-5.7-2.7-5.7-5.7c0-3,2.7-5.7,5.7-5.7
					C211.9,83.9,214.5,86.5,214.5,89.6z M213.2,81.2h-8.7l-1-22.9h10.8L213.2,81.2z"/>
			</g>
		</g>
	</g>
</g>
</svg>
