<svg id="Layer_1" data-name="Layer 1" xmlns="http://www.w3.org/2000/svg" viewBox="0 0 337.18 204.82"><defs><style>.cls-1{fill:#3aa148;}.cls-1,.cls-2{stroke:#513717;stroke-miterlimit:10;stroke-width:3px;}.cls-2{fill:none;}.cls-3{fill:#513613;}</style></defs><title>Artboard 1</title><path class="cls-1" d="M294.66,55.31l.09-.05.11-.06.15-.07a4.43,4.43,0,0,1,2.53-.24c2.39.4,4.85-.32,7.27-.4a34.46,34.46,0,0,0,12.32-2.92c.91-.42,9.77-4.7,13.64-14.26A33,33,0,0,0,332.92,27c.08-3.42-.07-6.12-.07-6.12-.08-1.52-.16-2-.13-3.25a12.55,12.55,0,0,1,.77-5.14c.84-1.9,2.37-3.3,2.18-3.48s-.29.12-.83.16a2.69,2.69,0,0,1-.66,0c-.67-.1-6.07-.07-9.09.15-8.19.61-12.44.92-17,3.44-8.4,4.64-11.48,13.07-11.95,14.42-1.07,3.09-1.24,6.18-1.57,12.37h0c.22,10.2-.08,12.72,0,13.7,0,0,0,0,0,.06s0,.08,0,.16a2.34,2.34,0,0,1-.6,1.12,6.34,6.34,0,0,1-1.78,1.33c-2.21,1-6.54,1.4-8.68.48-.17-.08-.75-.34-1.06-.1s-.27,1-.24,1.26a2.71,2.71,0,0,0,.1.55c.23.69,2.13,1.36,4.34,1.07C290.4,58.69,294.42,55.44,294.66,55.31Z"/><polyline class="cls-2" points="323.98 38.52 307.36 42.05 302.81 28.09"/><polyline class="cls-2" points="329.69 24.83 314.7 27.84 311.9 17.39"/><path class="cls-2" d="M330.15,14a26.08,26.08,0,0,0-4.58,2.1,29.09,29.09,0,0,0-8.16,7.36c-1.58,2-3.18,5.18-6.32,11.39-2.62,5.17-2.56,5.38-3.48,6.83a30,30,0,0,1-9.37,9.14"/><path class="cls-3" d="M166.3,47.2c0,15.05-11.45,26.1-27,26.1s-27-11.05-27-26.1,11.45-26.1,27-26.1S166.3,32.15,166.3,47.2Zm-35.8,0c0,5.55,3.7,9.55,8.8,9.55s8.8-4,8.8-9.55-3.7-9.55-8.8-9.55S130.49,41.65,130.49,47.2Z"/><path class="cls-3" d="M225.5,47.2c0,15.05-11.45,26.1-27,26.1s-27-11.05-27-26.1,11.45-26.1,27-26.1S225.5,32.15,225.5,47.2Zm-35.8,0c0,5.55,3.7,9.55,8.8,9.55s8.8-4,8.8-9.55-3.7-9.55-8.8-9.55S189.69,41.65,189.69,47.2Z"/><path class="cls-3" d="M266,26.05V0h17.8V72H266.74V67.65c-3,3.3-7.25,5.65-13.5,5.65-13.25,0-22.55-11.75-22.55-26.15S240,21.1,253.29,21.1A17.13,17.13,0,0,1,266,26.05ZM249,47.2c0,5.55,3.7,9.55,8.8,9.55s8.8-4,8.8-9.55-3.7-9.55-8.8-9.55S249,41.65,249,47.2Z"/><path class="cls-3" d="M17.8,92.08c2.8-3.5,7-5.25,12.55-5.25,10.25,0,17.7,7.25,17.7,18.65v32.25H30.25V111.08c0-5-2.35-7.6-6.25-7.6-3.45,0-6.2,2.25-6.2,7.7v26.55H0V65.63H17.8Z"/><path class="cls-3" d="M191.6,105.48v32.25H173.8V111.08c0-5-2.35-7.6-6.25-7.6-3.45,0-6.2,2.25-6.2,7.7v26.55h-17.8V111.08c0-5-2.35-7.6-6.25-7.6-3.45,0-6.2,2.25-6.2,7.7v26.55H113.3V88.18h17v5.1c2.8-4.3,7.2-6.45,13.4-6.45,6.35,0,11.6,2.8,14.7,7.65,3-5.1,8-7.65,14.75-7.65C184.55,86.83,191.6,94.08,191.6,105.48Z"/><path class="cls-3" d="M251,137.73h-17.1v-4.35c-3,3.3-7.25,5.65-13.5,5.65-13.25,0-22.55-11.75-22.55-26.15s9.3-26.05,22.6-26.05c6.2,0,10.5,2.4,13.45,5.8V88.18H251Zm-34.8-24.8c0,5.55,3.7,9.55,8.8,9.55s8.8-4,8.8-9.55-3.7-9.55-8.8-9.55S216.15,107.38,216.15,112.93Z"/><path class="cls-3" d="M70.74,169.67H54.64v11.6c0,5.35,2.8,7,6.65,7,2.75,0,5.75-1.7,8.05-3l6,13.8c-5,3.45-9.9,5.75-18.6,5.75-14.1,0-19.85-8.65-19.85-20.8V169.67h-9V154h9v-6h17.8v6h16.1Z"/><path class="cls-3" d="M114.49,153.12l-1,17.8a31.35,31.35,0,0,0-7.8-1.15c-5,0-8,1.75-8,7.2v26.55H79.88V154h17v5c2.75-4.4,7.1-6.35,13.15-6.35A22.2,22.2,0,0,1,114.49,153.12Z"/><path class="cls-3" d="M170,203.52h-17.1v-4.35c-3,3.3-7.25,5.65-13.5,5.65-13.25,0-22.55-11.75-22.55-26.15s9.3-26.05,22.6-26.05c6.2,0,10.5,2.4,13.45,5.8V154H170Zm-34.8-24.8c0,5.55,3.7,9.55,8.8,9.55s8.8-4,8.8-9.55-3.7-9.55-8.8-9.55S135.24,173.17,135.24,178.72Z"/><path class="cls-3" d="M213.89,203.52H193.74L174.83,154h19.45l9.6,29.65,9.7-29.65h18.85Z"/><path class="cls-3" d="M283.09,178.72a38,38,0,0,1-.35,5.3H250.38c1.2,4,4.2,6,8.9,6a13.57,13.57,0,0,0,9.35-4l12.2,10.2c-4.8,5.2-12.6,8.6-22.4,8.6-15.85,0-26.45-10.3-26.45-25.65,0-15.7,10.5-26.55,25.75-26.55C272.74,152.62,283,163.22,283.09,178.72Zm-32.65-5.45h14.9c-1.3-3.85-3.8-5.7-7.5-5.7S251.58,169.42,250.43,173.27Z"/><path class="cls-3" d="M85.87,100.81V64.75a19.35,19.35,0,0,1-15.77,7.47q-10.4,0-16.8-9.08-4.54-6.45-4.54-17,0-12.11,5.86-18.46t15.33-6.35a21.5,21.5,0,0,1,10,2.05,21.75,21.75,0,0,1,7.35,6.79V22.47h18.6V99.64m-37.3-52q0,5.61,2.39,8.33a8.49,8.49,0,0,0,12.52-.1Q86,53,86,47.37T83.38,38.7a8.26,8.26,0,0,0-6.45-3,7.47,7.47,0,0,0-6.08,2.76Q68.58,41.22,68.58,47.61Z"/><path class="cls-3" d="M81.35,125.36a4.62,4.62,0,0,0,3.84-2.78c.75-1.53.63-1.42.63-4.15V90.5h20.07v28.91a21.36,21.36,0,0,1-2,9.72A16.22,16.22,0,0,1,101,133.2a17,17,0,0,1-4.2,3.13,22.14,22.14,0,0,1-5.47,2c-2,.47-12.8.71-15.31.71a25.66,25.66,0,0,1-11.82-2.42,16.91,16.91,0,0,1-7.08-6.52,17.45,17.45,0,0,1-1.88-4.83,26,26,0,0,1-.61-5.86V87H74.68v31.21c0,1.6,0,.13.22,1.29a16.62,16.62,0,0,0,.92,3.73,3.77,3.77,0,0,0,3.55,2.28"/><path class="cls-3" d="M285,98.8a4.62,4.62,0,0,0-3.84,2.78c-.75,1.53-.62.77-.62,3.51v32.63H260.43V104.12a21.36,21.36,0,0,1,2-9.72,16.22,16.22,0,0,1,2.91-4.08,17,17,0,0,1,4.2-3.12,22.14,22.14,0,0,1,5.47-2c2-.47,12.8-.71,15.31-.71a25.66,25.66,0,0,1,11.82,2.42,16.91,16.91,0,0,1,7.08,6.52,17.45,17.45,0,0,1,1.88,4.83,26,26,0,0,1,.61,5.86v99.41H291.63V105.34c0-1.6,0,.51-.22-.65a16.62,16.62,0,0,0-.92-3.73,3.77,3.77,0,0,0-3.55-2.28"/></svg>