<svg id="Layer_1" data-name="Layer 1" xmlns="http://www.w3.org/2000/svg" viewBox="0 0 370.95 204.57"><defs><style>.cls-1{fill:#231f20;}.cls-2{fill:none;stroke:#231f20;stroke-miterlimit:10;stroke-width:3px;}</style></defs><title>Artboard 1</title><path class="cls-1" d="M96.67,98.07V62A19.35,19.35,0,0,1,80.9,69.48q-10.4,0-16.8-9.08-4.54-6.45-4.54-17,0-12.11,5.86-18.46t15.33-6.35a21.5,21.5,0,0,1,10,2.05,21.75,21.75,0,0,1,7.35,6.79V19.73h18.6V96.9m-37.3-52q0,5.61,2.39,8.33a8.49,8.49,0,0,0,12.52-.1q2.51-2.81,2.51-8.47T94.18,36a8.26,8.26,0,0,0-6.45-3,7.47,7.47,0,0,0-6.08,2.76Q79.38,38.48,79.38,44.87Z"/><path class="cls-1" d="M126.26,45.8q0-11.87,8-19.56t21.63-7.69q15.58,0,23.54,9,6.4,7.28,6.4,17.92,0,12-7.93,19.6t-21.95,7.64q-12.5,0-20.21-6.35Q126.26,58.54,126.26,45.8Zm19.92,0q0,6.93,2.81,10.25a9.2,9.2,0,0,0,14.11,0q2.76-3.27,2.76-10.5,0-6.74-2.78-10a8.67,8.67,0,0,0-6.88-3.3A9,9,0,0,0,149,35.57Q146.18,38.92,146.18,45.75Z"/><path class="cls-1" d="M193,45.8q0-11.87,8-19.56t21.63-7.69q15.58,0,23.54,9,6.4,7.28,6.4,17.92,0,12-7.93,19.6t-21.95,7.64q-12.5,0-20.21-6.35Q193,58.54,193,45.8Zm19.92,0q0,6.93,2.81,10.25a9.2,9.2,0,0,0,14.11,0q2.76-3.27,2.76-10.5,0-6.74-2.78-10a8.67,8.67,0,0,0-6.88-3.3,9,9,0,0,0-7.18,3.34Q212.88,38.92,212.88,45.75Z"/><path class="cls-1" d="M316.69,0V71.58h-18.6V63.92q-3.91,4.88-7.13,6.59a20.35,20.35,0,0,1-9.57,2.25q-10.6,0-16.19-8.06t-5.59-19.58q0-12.89,6.18-19.73a20.23,20.23,0,0,1,15.7-6.84,21.87,21.87,0,0,1,8.42,1.56,19.17,19.17,0,0,1,6.71,4.69V0ZM296.77,45.51q0-6.1-2.59-9.11a8.27,8.27,0,0,0-6.54-3,7.21,7.21,0,0,0-5.81,2.88q-2.34,2.88-2.34,9.67,0,6.35,2.42,9.3a7.44,7.44,0,0,0,6,3,8,8,0,0,0,6.35-3Q296.77,52.25,296.77,45.51Z"/><path class="cls-1" d="M0,63.72H19.87V90.08a26.83,26.83,0,0,1,8.06-6,22.88,22.88,0,0,1,9.47-1.81q8.1,0,12.77,4.93t4.66,15.14v33h-20V106.78q0-4.88-1.81-6.91a6.45,6.45,0,0,0-5.08-2,7.22,7.22,0,0,0-5.86,2.73q-2.25,2.73-2.25,9.81v24.9H0Z"/><path class="cls-1" d="M124.75,83.44H143.3V91a25.93,25.93,0,0,1,8.09-6.74,22.21,22.21,0,0,1,9.85-2q6.21,0,9.83,2.2A16.35,16.35,0,0,1,177,91a29.93,29.93,0,0,1,8.53-6.91A22.07,22.07,0,0,1,195,82.27q8.34,0,13,5t4.68,15.5V135.3H192.81V105.76a8.31,8.31,0,0,0-1.36-5.22,6,6,0,0,0-5-2.69,7,7,0,0,0-5.65,2.54q-2.14,2.54-2.14,8.15V135.3H158.78V106.74a17.87,17.87,0,0,0-.39-4.64,6.33,6.33,0,0,0-2.2-3.15,5.89,5.89,0,0,0-3.67-1.2,7.07,7.07,0,0,0-5.63,2.59q-2.21,2.59-2.21,8.5V135.3H124.75Z"/><path class="cls-1" d="M238.31,100.24l-19-2a21.31,21.31,0,0,1,3.1-7.84,17.1,17.1,0,0,1,5.83-5,24.43,24.43,0,0,1,7.52-2.34,60.7,60.7,0,0,1,10.35-.83,82.3,82.3,0,0,1,14.36,1,18.47,18.47,0,0,1,9,4.17,14.65,14.65,0,0,1,4,6.23,22.5,22.5,0,0,1,1.46,7.69v22.9a27.61,27.61,0,0,0,.46,5.74,25.69,25.69,0,0,0,2,5.3H258.82a18.93,18.93,0,0,1-1.46-3.05,22.47,22.47,0,0,1-.68-3.3,25.73,25.73,0,0,1-7.76,5.37,32.31,32.31,0,0,1-12.26,2.15q-9.28,0-14.09-4.3a13.65,13.65,0,0,1-4.81-10.6,13.88,13.88,0,0,1,3.47-9.72q3.47-3.81,12.79-5.66Q245.2,104,248.52,103a67.46,67.46,0,0,0,7-2.37q0-3.66-1.51-5.13t-5.32-1.46q-4.88,0-7.32,1.56A8.56,8.56,0,0,0,238.31,100.24Zm17.24,10.45q-4.1,1.46-8.54,2.59-6.06,1.61-7.67,3.17a5.08,5.08,0,0,0,0,7.5,6.92,6.92,0,0,0,4.81,1.49,12.37,12.37,0,0,0,6.18-1.61,9.75,9.75,0,0,0,4.05-3.93,13.16,13.16,0,0,0,1.2-6Z"/><path class="cls-1" d="M337.33,112.85v90.72h-20v-87"/><path class="cls-1" d="M81.94,142.9v8.65H92.88v14.55H81.94v18.37q0,3.31.63,4.39A3.63,3.63,0,0,0,86,190.51a21.79,21.79,0,0,0,6.15-1.27L93.61,203a64.71,64.71,0,0,1-13.77,1.61q-7.42,0-10.94-1.9a11.59,11.59,0,0,1-5.2-5.78Q62,193,62,184.33V166.09H54.69V151.54H62v-5Z"/><path class="cls-1" d="M98.14,151.54h18.6V160q2.69-5.52,5.54-7.59a11.69,11.69,0,0,1,7.06-2.08,21,21,0,0,1,9.62,2.73l-6.15,14.16a15.62,15.62,0,0,0-5.57-1.46,6.87,6.87,0,0,0-6.05,3.22q-3.08,4.54-3.08,17V203.4h-20Z"/><path class="cls-1" d="M157.76,168.34l-19-2a21.31,21.31,0,0,1,3.1-7.84,17.1,17.1,0,0,1,5.83-5,24.43,24.43,0,0,1,7.52-2.34,60.7,60.7,0,0,1,10.35-.83,82.3,82.3,0,0,1,14.36,1,18.47,18.47,0,0,1,9,4.17,14.65,14.65,0,0,1,4,6.23,22.5,22.5,0,0,1,1.46,7.69v22.9a27.61,27.61,0,0,0,.46,5.74,25.69,25.69,0,0,0,2,5.3H178.27a18.93,18.93,0,0,1-1.46-3.05,22.47,22.47,0,0,1-.68-3.3,25.73,25.73,0,0,1-7.76,5.37,32.33,32.33,0,0,1-12.26,2.15q-9.28,0-14.09-4.3a13.65,13.65,0,0,1-4.81-10.6,13.88,13.88,0,0,1,3.47-9.72q3.47-3.81,12.79-5.66,11.18-2.25,14.5-3.15a67.45,67.45,0,0,0,7-2.37q0-3.66-1.51-5.13t-5.32-1.46q-4.88,0-7.32,1.56A8.56,8.56,0,0,0,157.76,168.34ZM175,178.79q-4.1,1.46-8.54,2.59-6.06,1.61-7.67,3.17a5.08,5.08,0,0,0,0,7.5,6.92,6.92,0,0,0,4.81,1.49,12.37,12.37,0,0,0,6.18-1.61A9.75,9.75,0,0,0,173.8,188a13.16,13.16,0,0,0,1.2-6Z"/><path class="cls-1" d="M194.37,151.54H215l10.06,32.86,10.44-32.86H255.6l-22,51.86H215.94Z"/><path class="cls-1" d="M311.9,182.4H272.05q.54,4.79,2.59,7.13a9.42,9.42,0,0,0,7.52,3.37,11.29,11.29,0,0,0,5.57-1.46,13.09,13.09,0,0,0,3.47-3.27L310.77,190q-4.49,7.81-10.84,11.21t-18.21,3.39q-10.3,0-16.21-2.91a23.8,23.8,0,0,1-9.79-9.23,27.85,27.85,0,0,1-3.88-14.87q0-12.16,7.79-19.68t21.51-7.52q11.13,0,17.58,3.37a22.75,22.75,0,0,1,9.81,9.77q3.37,6.4,3.37,16.65Zm-20.21-9.52q-.59-5.76-3.1-8.25a9.73,9.73,0,0,0-14.18,1.27,13.77,13.77,0,0,0-2.29,7Z"/><path class="cls-1" d="M92.15,125.65A4.62,4.62,0,0,0,96,122.87c.75-1.53.63-4.44.63-7.18V87.76h20.07v28.91a21.36,21.36,0,0,1-2,9.72,16.22,16.22,0,0,1-2.91,4.08,17,17,0,0,1-4.2,3.13,22.14,22.14,0,0,1-5.47,2c-2,.47-12.8.71-15.31.71A25.66,25.66,0,0,1,75,133.88a16.91,16.91,0,0,1-7.08-6.52A17.45,17.45,0,0,1,66,122.52a26,26,0,0,1-.61-5.86V84.24H85.49v31.21a24.79,24.79,0,0,0,.22,4.32,16.62,16.62,0,0,0,.92,3.73,3.77,3.77,0,0,0,3.55,2.28"/><path class="cls-1" d="M310.6,93.88a4.62,4.62,0,0,0-3.84,2.78c-.75,1.53-.62,4.44-.62,7.18v32.63H286.06V102.86a21.36,21.36,0,0,1,2-9.72A16.22,16.22,0,0,1,291,89.07a17,17,0,0,1,4.2-3.12,22.14,22.14,0,0,1,5.47-2c2-.47,12.8-.71,15.31-.71a25.66,25.66,0,0,1,11.82,2.42,16.91,16.91,0,0,1,7.08,6.52A17.45,17.45,0,0,1,336.72,97a26,26,0,0,1,.61,5.86v32.43H317.26V104.08a24.79,24.79,0,0,0-.22-4.32,16.62,16.62,0,0,0-.92-3.73,3.77,3.77,0,0,0-3.55-2.28"/><path class="cls-2" d="M328.43,53.41l.09-.05.11-.06.15-.07a4.43,4.43,0,0,1,2.53-.24c2.39.4,4.85-.32,7.27-.4a34.46,34.46,0,0,0,12.32-2.92c.91-.42,9.77-4.7,13.64-14.26a33,33,0,0,0,2.16-10.3c.08-3.42-.07-6.12-.07-6.12-.08-1.52-.16-2-.13-3.25a12.55,12.55,0,0,1,.77-5.14c.84-1.9,2.37-3.3,2.18-3.48s-.29.12-.83.16a2.69,2.69,0,0,1-.66,0c-.67-.1-6.07-.07-9.09.15-8.19.61-12.44.92-17,3.44-8.4,4.64-11.48,13.07-11.95,14.42-1.07,3.09-1.24,6.18-1.57,12.37h0c.22,10.2-.08,12.72,0,13.7,0,0,0,0,0,.06s0,.08,0,.16a2.35,2.35,0,0,1-.6,1.12A6.34,6.34,0,0,1,325.9,54c-2.21,1-6.54,1.4-8.68.48-.17-.08-.75-.34-1.06-.1s-.27,1-.24,1.26a2.71,2.71,0,0,0,.1.55c.23.69,2.13,1.36,4.34,1.07C324.17,56.79,328.19,53.55,328.43,53.41Z"/><path class="cls-2" d="M363.91,12.11a26.08,26.08,0,0,0-4.58,2.1,29.09,29.09,0,0,0-8.16,7.36c-1.58,2-3.18,5.18-6.32,11.39-2.62,5.17-2.56,5.38-3.48,6.83A30,30,0,0,1,332,48.92"/><polyline class="cls-2" points="357.75 36.62 341.12 40.16 336.58 26.19"/><polyline class="cls-2" points="363.46 22.94 348.47 25.94 345.67 15.5"/></svg>